
<global>
amp_veltrack=0
ampeg_attack=0.01
ampeg_release=2.5
</global>

<group>
group_label=PP
loop_mode=loop_continuous
xf_cccurve=gain
xfin_hicc1=42
xfout_hicc1=85
xfout_locc1=42

<region>
hikey=g6
hivel=127
lokey=f#6
loop_end=287763
loop_start=130992
loop_xfade=45982
lovel=0
offset=17711
pitch_keycenter=g6
release_start=288000
release_xfade=17747
sample=Violins1_espressivo_PP_G6.opus
</region>

<region>
hikey=g5
hivel=127
lokey=f#5
loop_end=287763
loop_start=130992
loop_xfade=45982
lovel=0
offset=15554
pitch_keycenter=g5
release_start=288000
release_xfade=17747
sample=Violins1_espressivo_PP_G5.opus
</region>

<region>
hikey=g4
hivel=127
lokey=f#4
loop_end=282063
loop_start=128397
loop_xfade=45071
lovel=0
offset=4035
pitch_keycenter=g4
release_start=288000
release_xfade=17395
sample=Violins1_espressivo_PP_G4.opus
</region>

<region>
hivel=127
key=g3
loop_end=268781
loop_start=122351
loop_xfade=42948
lovel=0
offset=2451
release_start=288000
release_xfade=16576
sample=Violins1_espressivo_PP_G3.opus
</region>

<region>
hikey=f6
hivel=127
lokey=e6
loop_end=286744
loop_start=130528
loop_xfade=45819
lovel=0
offset=13566
pitch_keycenter=f6
release_start=288000
release_xfade=17684
sample=Violins1_espressivo_PP_F6.opus
</region>

<region>
hikey=f5
hivel=127
lokey=e5
loop_end=287647
loop_start=130939
loop_xfade=45963
lovel=0
offset=15268
pitch_keycenter=f5
release_start=288000
release_xfade=17739
sample=Violins1_espressivo_PP_F5.opus
</region>

<region>
hikey=f4
hivel=127
lokey=e4
loop_end=273607
loop_start=124548
loop_xfade=43720
lovel=0
pitch_keycenter=f4
release_start=288000
release_xfade=16874
sample=Violins1_espressivo_PP_F4.opus
</region>

<region>
hikey=d#6
hivel=127
lokey=d6
loop_end=286112
loop_start=130240
loop_xfade=45718
lovel=0
offset=13715
pitch_keycenter=d#6
release_start=288000
release_xfade=17645
sample=Violins1_espressivo_PP_D#6.opus
</region>

<region>
hikey=d#5
hivel=127
lokey=d5
loop_end=287763
loop_start=130992
loop_xfade=45982
lovel=0
offset=13918
pitch_keycenter=d#5
release_start=288000
release_xfade=17747
sample=Violins1_espressivo_PP_D#5.opus
</region>

<region>
hikey=d#4
hivel=127
lokey=d4
loop_end=272886
loop_start=124219
loop_xfade=43605
lovel=0
offset=1251
pitch_keycenter=d#4
release_start=288000
release_xfade=16829
sample=Violins1_espressivo_PP_D#4.opus
</region>

<region>
hikey=c#6
hivel=127
lokey=c6
loop_end=285816
loop_start=130105
loop_xfade=45671
lovel=0
offset=14992
pitch_keycenter=c#6
release_start=288000
release_xfade=17627
sample=Violins1_espressivo_PP_C#6.opus
</region>

<region>
hikey=c#5
hivel=127
lokey=c5
loop_end=283787
loop_start=129182
loop_xfade=45346
lovel=0
offset=14670
pitch_keycenter=c#5
release_start=288000
release_xfade=17501
sample=Violins1_espressivo_PP_C#5.opus
</region>

<region>
hikey=c#4
hivel=127
lokey=c4
loop_end=268970
loop_start=122437
loop_xfade=42979
lovel=0
pitch_keycenter=c#4
release_start=288000
release_xfade=16588
sample=Violins1_espressivo_PP_C#4.opus
</region>

<region>
hikey=b5
hivel=127
lokey=a#5
loop_end=277071
loop_start=126125
loop_xfade=44273
lovel=0
offset=3128
pitch_keycenter=b5
release_start=288000
release_xfade=17087
sample=Violins1_espressivo_PP_B5.opus
</region>

<region>
hikey=b4
hivel=127
lokey=a#4
loop_end=278158
loop_start=126620
loop_xfade=44447
lovel=0
offset=453
pitch_keycenter=b4
release_start=288000
release_xfade=17154
sample=Violins1_espressivo_PP_B4.opus
</region>

<region>
hikey=b3
hivel=127
lokey=a#3
loop_end=276832
loop_start=126016
loop_xfade=44235
lovel=0
pitch_keycenter=b3
release_start=288000
release_xfade=17072
sample=Violins1_espressivo_PP_B3.opus
</region>

<region>
hikey=E7
hivel=127
lokey=g#6
loop_end=287763
loop_start=130992
loop_xfade=45982
lovel=0
offset=15612
pitch_keycenter=A6
release_start=288000
release_xfade=17747
sample=Violins1_espressivo_PP_A6.opus
</region>

<region>
hikey=a5
hivel=127
lokey=g#5
loop_end=283161
loop_start=128897
loop_xfade=45246
lovel=0
offset=6835
pitch_keycenter=a5
release_start=288000
release_xfade=17463
sample=Violins1_espressivo_PP_A5.opus
</region>

<region>
hikey=a4
hivel=127
lokey=g#4
loop_end=277037
loop_start=126109
loop_xfade=44268
lovel=0
offset=1867
pitch_keycenter=a4
release_start=288000
release_xfade=17085
sample=Violins1_espressivo_PP_A4.opus
</region>

<region>
hikey=a3
hivel=127
lokey=g#3
loop_end=276275
loop_start=125762
loop_xfade=44146
lovel=0
offset=179
pitch_keycenter=a3
release_start=288000
release_xfade=17038
sample=Violins1_espressivo_PP_A3.opus
</region>
</group>

<group>
group_label=MF
loop_mode=loop_continuous
xf_cccurve=gain
xfin_hicc1=85
xfin_locc1=42
xfout_hicc1=127
xfout_locc1=85

<region>
hikey=g6
hivel=127
lokey=f#6
loop_end=273471
loop_start=124486
loop_xfade=43698
lovel=0
pitch_keycenter=g6
release_start=288000
release_xfade=16865
sample=Violins1_espressivo_MF_G6.opus
</region>

<region>
hikey=g5
hivel=127
lokey=f#5
loop_end=274749
loop_start=125068
loop_xfade=43902
lovel=0
pitch_keycenter=g5
release_start=288000
release_xfade=16944
sample=Violins1_espressivo_MF_G5.opus
</region>

<region>
hikey=g4
hivel=127
lokey=f#4
loop_end=274049
loop_start=124749
loop_xfade=43790
lovel=0
pitch_keycenter=g4
release_start=288000
release_xfade=16901
sample=Violins1_espressivo_MF_G4.opus
</region>

<region>
hivel=127
key=g3
loop_end=266364
loop_start=121251
loop_xfade=42562
lovel=0
release_start=288000
release_xfade=16427
sample=Violins1_espressivo_MF_G3.opus
</region>

<region>
hikey=f6
hivel=127
lokey=e6
loop_end=273132
loop_start=124332
loop_xfade=43644
lovel=0
pitch_keycenter=f6
release_start=288000
release_xfade=16844
sample=Violins1_espressivo_MF_F6.opus
</region>

<region>
hikey=f5
hivel=127
lokey=e5
loop_end=274615
loop_start=125007
loop_xfade=43881
lovel=0
pitch_keycenter=f5
release_start=288000
release_xfade=16936
sample=Violins1_espressivo_MF_F5.opus
</region>

<region>
hikey=f4
hivel=127
lokey=e4
loop_end=277769
loop_start=126442
loop_xfade=44385
lovel=0
pitch_keycenter=f4
release_start=288000
release_xfade=17130
sample=Violins1_espressivo_MF_F4.opus
</region>

<region>
hikey=d#6
hivel=127
lokey=d6
loop_end=271470
loop_start=123575
loop_xfade=43378
lovel=0
pitch_keycenter=d#6
release_start=288000
release_xfade=16742
sample=Violins1_espressivo_MF_D#6.opus
</region>

<region>
hikey=d#5
hivel=127
lokey=d5
loop_end=277110
loop_start=126142
loop_xfade=44279
lovel=0
pitch_keycenter=d#5
release_start=288000
release_xfade=17090
sample=Violins1_espressivo_MF_D#5.opus
</region>

<region>
hikey=d#4
hivel=127
lokey=d4
loop_end=275833
loop_start=125561
loop_xfade=44075
lovel=0
pitch_keycenter=d#4
release_start=288000
release_xfade=17011
sample=Violins1_espressivo_MF_D#4.opus
</region>

<region>
hikey=c#6
hivel=127
lokey=c6
loop_end=273617
loop_start=124553
loop_xfade=43721
lovel=0
pitch_keycenter=c#6
release_start=288000
release_xfade=16874
sample=Violins1_espressivo_MF_C#6.opus
</region>

<region>
hikey=c#5
hivel=127
lokey=c5
loop_end=273667
loop_start=124575
loop_xfade=43729
lovel=0
pitch_keycenter=c#5
release_start=288000
release_xfade=16877
sample=Violins1_espressivo_MF_C#5.opus
</region>

<region>
hikey=c#4
hivel=127
lokey=c4
loop_end=272511
loop_start=124049
loop_xfade=43544
lovel=0
pitch_keycenter=c#4
release_start=288000
release_xfade=16806
sample=Violins1_espressivo_MF_C#4.opus
</region>

<region>
hikey=b5
hivel=127
lokey=a#5
loop_end=275456
loop_start=125389
loop_xfade=44015
lovel=0
pitch_keycenter=b5
release_start=288000
release_xfade=16988
sample=Violins1_espressivo_MF_B5.opus
</region>

<region>
hikey=b4
hivel=127
lokey=a#4
loop_end=276046
loop_start=125658
loop_xfade=44109
lovel=0
pitch_keycenter=b4
release_start=288000
release_xfade=17024
sample=Violins1_espressivo_MF_B4.opus
</region>

<region>
hikey=b3
hivel=127
lokey=a#3
loop_end=274846
loop_start=125112
loop_xfade=43918
lovel=0
pitch_keycenter=b3
release_start=288000
release_xfade=16950
sample=Violins1_espressivo_MF_B3.opus
</region>

<region>
hikey=E7
hivel=127
lokey=g#6
loop_end=274620
loop_start=125009
loop_xfade=43881
lovel=0
pitch_keycenter=A6
release_start=288000
release_xfade=16936
sample=Violins1_espressivo_MF_A6.opus
</region>

<region>
hikey=a5
hivel=127
lokey=g#5
loop_end=277031
loop_start=126106
loop_xfade=44267
lovel=0
pitch_keycenter=a5
release_start=288000
release_xfade=17085
sample=Violins1_espressivo_MF_A5.opus
</region>

<region>
hikey=a4
hivel=127
lokey=g#4
loop_end=272177
loop_start=123897
loop_xfade=43491
lovel=0
pitch_keycenter=a4
release_start=288000
release_xfade=16785
sample=Violins1_espressivo_MF_A4.opus
</region>

<region>
hikey=a3
hivel=127
lokey=g#3
loop_end=271425
loop_start=123555
loop_xfade=43371
lovel=0
pitch_keycenter=a3
release_start=288000
release_xfade=16739
sample=Violins1_espressivo_MF_A3.opus
</region>
</group>

<group>
group_label=FF
loop_mode=loop_continuous
xf_cccurve=gain
xfin_hicc1=127
xfin_locc1=85
xfout_hicc1=127
xfout_locc1=127

<region>
hikey=g6
hivel=127
lokey=f#6
loop_end=273636
loop_start=124561
loop_xfade=43724
lovel=0
pitch_keycenter=g6
release_start=288000
release_xfade=16875
sample=Violins1_espressivo_FF_G6.opus
</region>

<region>
hikey=g5
hivel=127
lokey=f#5
loop_end=274650
loop_start=125022
loop_xfade=43886
lovel=0
pitch_keycenter=g5
release_start=288000
release_xfade=16938
sample=Violins1_espressivo_FF_G5.opus
</region>

<region>
hikey=g4
hivel=127
lokey=f#4
loop_end=277939
loop_start=126520
loop_xfade=44412
lovel=0
pitch_keycenter=g4
release_start=288000
release_xfade=17141
sample=Violins1_espressivo_FF_G4.opus
</region>

<region>
hivel=127
key=g3
loop_end=273534
loop_start=124515
loop_xfade=43708
lovel=0
release_start=288000
release_xfade=16869
sample=Violins1_espressivo_FF_G3.opus
</region>

<region>
hikey=f6
hivel=127
lokey=e6
loop_end=272703
loop_start=124136
loop_xfade=43575
lovel=0
pitch_keycenter=f6
release_start=288000
release_xfade=16818
sample=Violins1_espressivo_FF_F6.opus
</region>

<region>
hikey=f5
hivel=127
lokey=e5
loop_end=277300
loop_start=126229
loop_xfade=44310
lovel=0
pitch_keycenter=f5
release_start=288000
release_xfade=17101
sample=Violins1_espressivo_FF_F5.opus
</region>

<region>
hikey=f4
hivel=127
lokey=e4
loop_end=275195
loop_start=125271
loop_xfade=43973
lovel=0
pitch_keycenter=f4
release_start=288000
release_xfade=16972
sample=Violins1_espressivo_FF_F4.opus
</region>

<region>
hikey=d#5
hivel=127
lokey=d5
loop_end=276177
loop_start=125718
loop_xfade=44130
lovel=0
pitch_keycenter=d#5
release_start=288000
release_xfade=17032
sample=Violins1_espressivo_FF_D#5.opus
</region>

<region>
hikey=d#4
hivel=127
lokey=d4
loop_end=276963
loop_start=126076
loop_xfade=44256
lovel=0
pitch_keycenter=d#4
release_start=288000
release_xfade=17081
sample=Violins1_espressivo_FF_D#4.opus
</region>

<region>
hikey=c#6
hivel=127
lokey=c6
loop_end=271917
loop_start=123779
loop_xfade=43449
lovel=0
pitch_keycenter=c#6
release_start=288000
release_xfade=16769
sample=Violins1_espressivo_FF_C#6.opus
</region>

<region>
hikey=c#5
hivel=127
lokey=c5
loop_end=273072
loop_start=124305
loop_xfade=43634
lovel=0
pitch_keycenter=c#5
release_start=288000
release_xfade=16841
sample=Violins1_espressivo_FF_C#5.opus
</region>

<region>
hikey=c#4
hivel=127
lokey=c4
loop_end=276762
loop_start=125984
loop_xfade=44224
lovel=0
pitch_keycenter=c#4
release_start=288000
release_xfade=17068
sample=Violins1_espressivo_FF_C#4.opus
</region>

<region>
hikey=b5
hivel=127
lokey=a#5
loop_end=272703
loop_start=124136
loop_xfade=43575
lovel=0
pitch_keycenter=b5
release_start=288000
release_xfade=16818
sample=Violins1_espressivo_FF_B5.opus
</region>

<region>
hikey=b4
hivel=127
lokey=a#4
loop_end=278217
loop_start=126647
loop_xfade=44456
lovel=0
pitch_keycenter=b4
release_start=288000
release_xfade=17158
sample=Violins1_espressivo_FF_B4.opus
</region>

<region>
hikey=b3
hivel=127
lokey=a#3
loop_end=275271
loop_start=125305
loop_xfade=43986
lovel=0
pitch_keycenter=b3
release_start=288000
release_xfade=16976
sample=Violins1_espressivo_FF_B3.opus
</region>

<region>
hikey=E7
hivel=127
lokey=g#6
loop_end=272820
loop_start=124189
loop_xfade=43594
lovel=0
pitch_keycenter=A6
release_start=288000
release_xfade=16825
sample=Violins1_espressivo_FF_A6.opus
</region>

<region>
hikey=a5
hivel=127
lokey=g#5
loop_end=270473
loop_start=123121
loop_xfade=43219
lovel=0
pitch_keycenter=a5
release_start=288000
release_xfade=16680
sample=Violins1_espressivo_FF_A5.opus
</region>

<region>
hikey=a4
hivel=127
lokey=g#4
loop_end=276285
loop_start=125767
loop_xfade=44147
lovel=0
pitch_keycenter=a4
release_start=288000
release_xfade=17039
sample=Violins1_espressivo_FF_A4.opus
</region>

<region>
hikey=a3
hivel=127
lokey=g#3
loop_end=276253
loop_start=125752
loop_xfade=44142
lovel=0
pitch_keycenter=a3
release_start=288000
release_xfade=17037
sample=Violins1_espressivo_FF_A3.opus
</region>

<region>
hivel=127
key=D6
loop_end=282648
loop_mode=loop_continuous
loop_start=65352
loop_xfade=21586
lovel=0
release_start=288000
release_xfade=10370
sample=Violins1_sustain_FF_D6.opus
</region>

<region>
hivel=127
key=D#6
loop_end=279986
loop_mode=loop_continuous
loop_start=64736
loop_xfade=21383
lovel=0
release_start=288000
release_xfade=10774
sample=Violins1_sustain_FF_D#6.opus
</region>
</group>